<svg width="12" height="13" viewBox="0 0 12 13" fill="none" xmlns="http://www.w3.org/2000/svg">
<mask id="mask0_3395_97" style="mask-type:alpha" maskUnits="userSpaceOnUse" x="2" y="2" width="8" height="9">
<path fill-rule="evenodd" clip-rule="evenodd" d="M6.74667 6.879L9.84 3.78566C10.0533 3.57233 10.0533 3.25233 9.84 3.039C9.62667 2.82566 9.30667 2.82566 9.09333 3.039L6 6.13233L2.90667 3.039C2.69333 2.82566 2.37333 2.82566 2.16 3.039C1.94667 3.25233 1.94667 3.57233 2.16 3.78566L5.25333 6.879L2.16 9.97233C1.94667 10.1857 1.94667 10.5057 2.16 10.719C2.26667 10.8257 2.4 10.879 2.53333 10.879C2.66667 10.879 2.8 10.8257 2.90667 10.719L6 7.62566L9.09333 10.719C9.2 10.8257 9.33333 10.879 9.46667 10.879C9.6 10.879 9.73333 10.8257 9.84 10.719C10.0533 10.5057 10.0533 10.1857 9.84 9.97233L6.74667 6.879Z" fill="white"/>
</mask>
<g mask="url(#mask0_3395_97)">
<rect y="0.878998" width="12" height="12" fill="#1A1818"/>
</g>
</svg>
