<svg width="17" height="17" viewBox="0 0 17 17" fill="none" xmlns="http://www.w3.org/2000/svg">
<path fill-rule="evenodd" clip-rule="evenodd" d="M14.57 8.41218C14.6334 12.0457 11.6255 15.0428 7.99203 15.1062C4.35914 15.169 1.47687 12.2747 1.41407 8.64125C1.35067 5.00896 4.35914 2.01065 7.99203 1.94785C11.6249 1.88445 14.5072 4.77988 14.57 8.41218Z" fill="#F1515F"/>
<path fill-rule="evenodd" clip-rule="evenodd" d="M7.50606 9.56087L7.30536 5.4556H8.71028L8.52782 9.56087H7.50606ZM7.28711 10.9019C7.28711 10.5005 7.61553 10.163 8.01693 10.163C8.41834 10.163 8.74676 10.5005 8.74676 10.9019C8.74676 11.2942 8.41834 11.6317 8.01693 11.6317C7.61553 11.6317 7.28711 11.2942 7.28711 10.9019Z" fill="white"/>
</svg>
